<svg xmlns="http://www.w3.org/2000/svg" viewBox="0 0 430.72 120"><defs><style>.cls-1,.cls-2{fill:#fff;}.cls-2{font-size:28px;font-family:PingFangSC-Regular-B5pc-H, PingFang SC;letter-spacing:0.3em;}.cls-3{fill:#ff7500;}</style></defs><title>资源 3</title><g id="图层_2" data-name="图层 2"><g id="图层_1-2" data-name="图层 1"><polygon class="cls-1" points="278.2 20.75 278.2 14.6 247.62 14.6 247.62 10.25 241.47 10.25 241.47 28.32 224.34 28.32 224.34 11.28 218.19 11.28 218.19 28.32 213.72 28.32 213.72 34.47 241.47 34.47 241.47 54.16 247.62 54.16 247.62 34.47 278.2 34.47 278.2 28.32 247.62 28.32 247.62 20.75 278.2 20.75"/><rect class="cls-1" x="335.8" y="10.25" width="13.75" height="6.15" transform="translate(685.36 26.66) rotate(180)"/><path class="cls-1" d="M421.51,33.53V27.38H375.58v6.15h19.7v4.86H381.66a6.84,6.84,0,0,0-6.83,6.83v18A6.84,6.84,0,0,0,381.66,70H414.2A6.84,6.84,0,0,0,421,63.2v-18a6.84,6.84,0,0,0-6.83-6.83H401.43V33.53ZM414.88,63.2a.68.68,0,0,1-.68.67H381.66a.67.67,0,0,1-.68-.67V56.88h33.9Zm-.68-18.65a.68.68,0,0,1,.68.67v5.5H381v-5.5a.67.67,0,0,1,.68-.67Z"/><path class="cls-1" d="M163,35.78l2.46-20.65,0-.36a4.62,4.62,0,0,0-4.53-4.7H142.31v6.15h16.83L156.85,35.4h-9l1.56-13.11h-6.2l-1.69,14.2,0,.37a4.68,4.68,0,0,0,.13,1.07,4.58,4.58,0,0,0,4.41,3.63h13.8V63.63H143.14v6.15h18A4.89,4.89,0,0,0,166,64.9V40.29A4.89,4.89,0,0,0,163,35.78Z"/><path class="cls-1" d="M194,47.89v6.2l4.71-.61a8.48,8.48,0,0,0,7.38-8.4V23.68a8.59,8.59,0,0,0-9.58-8.53l-5.2.61V10.25h-6.15v6.23l-6.69.78v-7h-6.16V18l-3.27.38v6.19l3.27-.38V61.34a8.44,8.44,0,0,0,8.45,8.44h25.33V63.63H181a2.54,2.54,0,0,1-2.54-2.54V23.45l6.69-.78V55.49h6.15V22l4.46-.52a3.74,3.74,0,0,1,4.17,3.72V43.44a4.19,4.19,0,0,1-3.65,4.15Z"/><path class="cls-1" d="M269.33,40.15h8S258.12,71.5,213.72,69.36v-6S247.17,66.35,269.33,40.15Z"/><path class="cls-1" d="M218.91,38.72l-.32,8.89a3.2,3.2,0,0,1-3.31,3.08l-1.56,0v6.15l1.34.05h.34a9.37,9.37,0,0,0,9.34-9l.32-9.11Z"/><path class="cls-1" d="M302.3,10.25h-7c-3.54,17-9.89,18.73-9.89,18.73V37a23.23,23.23,0,0,0,6.81-4.59V69.36h6.16V23.77A42.79,42.79,0,0,0,302.3,10.25Z"/><path class="cls-1" d="M375.58,25.26h-7c-2.37,8.33-11.71,12.56-11.71,12.56V44.2c2.68-.88,3.47-1,5.37-2.35V69.47h6.15v-33C372.57,32.6,375.58,25.26,375.58,25.26Z"/><path class="cls-1" d="M349.56,20H322.75l1.42-9.77H318L316.54,20H302.3v6.16h13.34l-2.37,16.31a35.07,35.07,0,0,1-11,20.81v7.91a41.34,41.34,0,0,0,17.06-27.84l2.5-17.19h27.7Z"/><path class="cls-1" d="M349.56,63.39H337a2.3,2.3,0,0,1-2.29-2.29V30.46h-6.15V61.1A8.44,8.44,0,0,0,337,69.54h12.55Z"/><path class="cls-1" d="M414.07,14.25H392.56V10.19h-6.15v4.06h-22A7.45,7.45,0,0,0,357,21.69v3.58h6.16V21.69a1.31,1.31,0,0,1,1.29-1.29h49.65a1.31,1.31,0,0,1,1.29,1.29v3.58h6.15V21.69A7.45,7.45,0,0,0,414.07,14.25Z"/><path class="cls-1" d="M224.11,26.69l.16-.05-.16-.1Z"/><text class="cls-2" transform="translate(139.52 105.74)">智慧酒店预订平台</text><rect class="cls-3" width="120" height="120" rx="12" ry="12"/><path class="cls-1" d="M52.64,36.11s5.74,5.38,1.17,24.41-7.1,30.58,10.49,33,37-12.79,38.23-25.78-23.17-10-23.17-10,15.71,2.11,8.14,15.06S62.59,89.75,58.57,86.69,61.27,66.63,67.52,59s12.26-25.93-2.94-25.58C55.73,33.87,52.64,36.11,52.64,36.11Z"/><path class="cls-1" d="M72.61,102.37a40,40,0,0,1-40-40.55c.1-17.86,12.47-37.34,31-40.4A29.71,29.71,0,0,1,77.9,22.68a11.1,11.1,0,0,1,7.45,12.17,39.54,39.54,0,0,1-2.52,9.91c-.61,1.49-2.94,6.74-4.92,8.11.07-.14,11.26-6.45,13.4-17.43.89-7-.6-13.53-6.81-17.67-8.64-5.77-21.09-7-30.79-4.83-1.36.3-2.71.65-4,1.07A48.92,48.92,0,0,0,64,109.6c19,.1,34.32-7.65,41.4-22.45C97.26,95.52,85.73,102.44,72.61,102.37Z"/><rect class="cls-1" x="139.01" y="50" width="14.75" height="6.15"/></g></g></svg>